<?xml version="1.0" standalone="no"?>
<!DOCTYPE svg PUBLIC "-//W3C//DTD SVG 20010904//EN"
 "http://www.w3.org/TR/2001/REC-SVG-20010904/DTD/svg10.dtd">
<svg version="1.0" xmlns="http://www.w3.org/2000/svg"
 width="225.000000pt" height="225.000000pt" viewBox="0 0 225.000000 225.000000"
 preserveAspectRatio="xMidYMid meet">
<metadata>
Created by potrace 1.14, written by Peter Selinger 2001-2017
</metadata>
<g transform="translate(0.000000,225.000000) scale(0.100000,-0.100000)"
fill="#000000" stroke="none">
<path d="M0 1125 l0 -1125 1125 0 1125 0 0 1125 0 1125 -1125 0 -1125 0 0
-1125z m1090 470 l0 -435 -430 0 -430 0 0 435 0 435 430 0 430 0 0 -435z m930
0 l0 -435 -430 0 -430 0 0 435 0 435 430 0 430 0 0 -435z m-930 -940 l0 -435
-430 0 -430 0 0 435 0 435 430 0 430 0 0 -435z m930 0 l0 -435 -430 0 -430 0
0 435 0 435 430 0 430 0 0 -435z"/>
<path d="M1683 1023 c-35 -3 -43 -8 -43 -24 0 -23 -9 -24 -24 -4 -10 13 -17
12 -56 -6 -61 -28 -103 -68 -89 -86 9 -10 6 -13 -14 -13 -21 0 -30 -10 -52
-56 -15 -31 -29 -71 -32 -90 -5 -29 -3 -34 13 -34 17 0 16 -3 -5 -19 -21 -16
-25 -29 -29 -96 -5 -76 -4 -78 17 -72 26 6 26 2 1 -30 -11 -14 -20 -34 -20
-45 0 -29 -27 -75 -73 -126 l-42 -45 49 6 c101 14 178 80 197 169 5 24 11 53
14 66 4 14 13 22 26 22 18 0 20 -5 17 -37 -2 -33 1 -40 25 -51 25 -12 27 -17
21 -45 -8 -42 -29 -64 -89 -95 -63 -32 -46 -38 49 -17 63 14 80 15 110 4 33
-12 38 -11 88 23 39 25 56 44 63 69 7 24 20 39 42 49 52 24 42 40 -25 40 -70
0 -94 15 -127 80 l-25 48 43 21 c48 23 79 26 107 11 15 -8 22 -6 33 11 l15 20
16 -23 17 -23 25 28 c13 15 24 37 24 47 0 42 -107 39 -212 -5 -132 -56 -117
-54 -148 -16 -28 32 -28 35 -12 56 50 66 157 94 236 61 41 -17 50 -15 66 15
10 17 6 22 -36 41 -65 28 -157 28 -218 -1 -25 -13 -69 -48 -97 -79 -37 -40
-47 -48 -36 -27 20 39 82 98 126 120 62 31 158 31 234 0 11 -5 17 -3 17 7 0 8
16 31 36 50 l35 36 -33 20 c-52 31 -75 35 -87 15 -9 -16 -10 -16 -11 5 0 18
-6 22 -29 22 -16 0 -35 1 -43 3 -7 2 -32 2 -55 0z m3 -549 c8 -20 24 -38 35
-41 26 -7 24 -20 -6 -25 -21 -4 -26 0 -40 40 -8 25 -15 49 -15 54 0 19 12 6
26 -28z"/>
<path d="M1850 589 c0 -11 29 -19 45 -13 26 10 16 24 -15 22 -16 -1 -30 -5
-30 -9z"/>
<path d="M1813 548 c-2 -5 11 -9 29 -9 18 -1 25 -3 16 -6 -24 -6 -23 -19 2
-26 17 -4 20 0 20 24 0 25 -3 28 -31 26 -17 -1 -33 -5 -36 -9z"/>
</g>
</svg>
